<svg version="1.1" xmlns="http://www.w3.org/2000/svg" xmlns:xlink="http://www.w3.org/1999/xlink" width="143" height="112"><defs/><g><path fill="rgb(251,249,248)" stroke="none" paint-order="stroke fill markers" fill-rule="evenodd" d=" M 63.249847412109375 49.95941627025604 C 63.249847412109375 49.95941627025604 63.249847412109375 110.9997045993805 63.249847412109375 110.9997045993805 C 63.249847412109375 110.9997045993805 1.9999237060546875 110.9997045993805 1.9999237060546875 110.9997045993805 C 1.9999237060546875 110.9997045993805 1.9999237060546875 49.08662438392639 1.9999237060546875 49.08662438392639 C 1.9999237060546875 7.232545495033264 41.374942779541016 1.999597191810608 41.374942779541016 1.999597191810608 C 41.374942779541016 1.999597191810608 46.62568283081055 14.206957638263702 46.62568283081055 14.206957638263702 C 46.62568283081055 14.206957638263702 29.12575912475586 16.825650215148926 25.626632690429688 30.77384066581726 C 22.123119354248047 41.23973727226257 29.12575912475586 49.95941627025604 29.12575912475586 49.95941627025604 C 29.12575912475586 49.95941627025604 63.249847412109375 49.95941627025604 63.249847412109375 49.95941627025604 Z M 141.99998092651367 49.95941627025604 C 141.99998092651367 49.95941627025604 141.99998092651367 110.9997045993805 141.99998092651367 110.9997045993805 C 141.99998092651367 110.9997045993805 80.74996185302734 110.9997045993805 80.74996185302734 110.9997045993805 C 80.74996185302734 110.9997045993805 80.74996185302734 49.08662438392639 80.74996185302734 49.08662438392639 C 80.74996185302734 7.232545495033264 120.12488555908203 1.999597191810608 120.12488555908203 1.999597191810608 C 120.12488555908203 1.999597191810608 125.37142944335938 14.206957638263702 125.37142944335938 14.206957638263702 C 125.37142944335938 14.206957638263702 107.87141036987305 16.825650215148926 104.37667083740234 30.77384066581726 C 100.8731575012207 41.23973727226257 107.87141036987305 49.95941627025604 107.87141036987305 49.95941627025604 C 107.87141036987305 49.95941627025604 141.99998092651367 49.95941627025604 141.99998092651367 49.95941627025604 Z"/></g></svg>